<svg xmlns="http://www.w3.org/2000/svg" viewBox="0 0 50.08 50.08"><defs><style>.cls-1{fill:#17a2b8;}.cls-2{fill:none;}</style></defs><title>C</title><g id="レイヤー_2" data-name="レイヤー 2"><g id="レイヤー_1-2" data-name="レイヤー 1"><path class="cls-1" d="M48.32,29.18a11,11,0,0,1-19.39,7.1A23.12,23.12,0,0,0,33.47,48a23.36,23.36,0,0,0-16.84,0,23.12,23.12,0,0,0,4.54-11.74,11,11,0,1,1-8.4-18.09,10.34,10.34,0,0,1,2.57.31l.22.05a11,11,0,1,1,19.06,0,.32.32,0,0,1,.14,0,10.32,10.32,0,0,1,2.56-.31A11,11,0,0,1,48.32,29.18Z"/><rect class="cls-2" width="50.08" height="50.08"/></g></g></svg>