<svg xmlns="http://www.w3.org/2000/svg" viewBox="0 0 50.08 50.08"><defs><style>.cls-1{fill:#17a2b8;}.cls-2{fill:none;}</style></defs><title>H</title><g id="レイヤー_2" data-name="レイヤー 2"><g id="レイヤー_1-2" data-name="レイヤー 1"><path class="cls-1" d="M46.35,19.88c-.44,10.78-17.57,20.42-21.3,22.39C21.32,40.31,4,30.56,3.74,19.7v-.09A13.44,13.44,0,0,1,6.6,12.23c.21-.29.43-.56.66-.82a.6.6,0,0,1,.11-.12,11.14,11.14,0,0,1,4.92-3.08h.05c5.47-1.56,10.84,2,12.71,3.46,1.88-1.46,7.24-5,12.7-3.46h0a11.14,11.14,0,0,1,4.92,3.08l.11.12c.23.26.45.53.66.82A13.34,13.34,0,0,1,46.35,19.88Z"/><rect class="cls-2" width="50.08" height="50.08"/></g></g></svg>