<svg xmlns="http://www.w3.org/2000/svg" viewBox="0 0 50.08 50.08"><defs><style>.cls-1{fill:#17a2b8;}.cls-2{fill:none;}</style></defs><title>S</title><g id="レイヤー_2" data-name="レイヤー 2"><g id="レイヤー_1-2" data-name="レイヤー 1"><path class="cls-1" d="M46.35,25.34v.09a13.44,13.44,0,0,1-2.86,7.38c-.21.29-.43.56-.66.82a.6.6,0,0,1-.11.12,11.14,11.14,0,0,1-4.92,3.08h0a12.69,12.69,0,0,1-8.9-1.13,23,23,0,0,0,3.7,11.61,23.3,23.3,0,0,0-15,0,23,23,0,0,0,3.7-11.6,12.72,12.72,0,0,1-8.91,1.12h-.05a11.14,11.14,0,0,1-4.92-3.08l-.11-.12c-.23-.26-.45-.53-.66-.82a13.34,13.34,0,0,1-2.86-7.65c.16-3.87,2.47-7.6,5.54-10.88C14.76,8.44,22.65,4,25,2.77,27.42,4,35.33,8.44,40.81,14.29,43.93,17.62,46.26,21.4,46.35,25.34Z"/><rect class="cls-2" width="50.08" height="50.08"/></g></g></svg>